<?xml version="1.0" standalone="no"?>
<!DOCTYPE svg PUBLIC "-//W3C//DTD SVG 20010904//EN"
 "http://www.w3.org/TR/2001/REC-SVG-20010904/DTD/svg10.dtd">
<svg version="1.0" xmlns="http://www.w3.org/2000/svg"
 width="1024.000000pt" height="1024.000000pt" viewBox="0 0 1024.000000 1024.000000"
 preserveAspectRatio="xMidYMid meet">
<metadata>
Created by potrace 1.15, written by Peter Selinger 2001-2017
</metadata>
<g transform="translate(0.000000,1024.000000) scale(0.100000,-0.100000)"
fill="#000000" stroke="none">
<path d="M410 10160 c-8 -5 -27 -10 -42 -10 -22 0 -31 -9 -56 -57 -19 -38 -43
-68 -72 -88 -35 -25 -47 -42 -62 -87 -13 -38 -31 -68 -55 -89 -32 -27 -38 -41
-54 -117 -13 -65 -14 -89 -6 -94 7 -4 17 -2 22 6 6 7 17 12 26 11 22 -4 36 25
54 115 8 41 21 78 29 82 39 22 72 59 85 94 18 52 29 64 77 85 51 21 56 29 70
102 11 59 9 63 -16 47z"/>
<path d="M9814 10112 c14 -71 19 -79 64 -98 50 -21 67 -38 82 -85 12 -36 46
-75 86 -97 8 -4 21 -41 29 -82 18 -90 32 -119 54 -115 9 1 19 -3 23 -8 3 -6
14 -12 22 -14 9 -2 24 -5 34 -7 9 -2 16 -10 14 -17 -2 -8 0 -10 4 -6 5 4 10
19 11 32 3 18 -1 25 -12 25 -9 0 -14 -4 -10 -9 3 -5 1 -12 -4 -16 -15 -9 -27
22 -42 104 -11 65 -17 78 -50 109 -25 23 -44 53 -57 90 -15 45 -27 62 -62 87
-29 20 -53 50 -72 88 -23 45 -34 57 -53 57 -13 0 -34 4 -47 9 l-24 9 10 -56z"/>
<path d="M0 9966 c0 -139 1 -144 22 -149 35 -10 61 10 54 41 -4 15 -9 71 -13
125 -3 60 -9 93 -14 85 -6 -9 -9 -4 -9 15 0 20 -5 27 -20 27 -19 0 -20 -7 -20
-144z"/>
<path d="M10200 10083 c0 -19 -3 -24 -9 -15 -5 8 -11 -25 -14 -85 -4 -54 -9
-110 -13 -125 -7 -31 19 -51 54 -41 21 5 22 10 22 149 0 137 -1 144 -20 144
-15 0 -20 -7 -20 -27z"/>
<path d="M5780 7227 c-125 -58 -140 -69 -261 -189 -99 -98 -158 -171 -224
-274 -22 -35 -58 -90 -80 -123 -85 -127 -129 -206 -175 -312 -27 -60 -60 -129
-73 -152 -54 -94 -59 -125 -60 -430 -1 -342 7 -406 67 -537 24 -52 50 -113 56
-135 20 -63 40 -97 81 -137 42 -41 69 -113 69 -185 0 -47 -14 -83 -31 -83 -20
0 -114 -51 -141 -77 -15 -14 -39 -51 -53 -82 -15 -31 -46 -76 -70 -101 -24
-25 -59 -77 -79 -116 -19 -40 -53 -93 -75 -118 -22 -25 -56 -77 -77 -116 -20
-38 -40 -70 -45 -70 -12 0 -55 -78 -73 -136 -12 -37 -28 -60 -56 -83 -31 -25
-43 -44 -55 -89 -24 -86 -33 -104 -74 -139 -67 -56 -141 -236 -141 -339 0 -65
31 -108 93 -126 33 -10 352 -13 1507 -13 1644 0 1489 -8 1566 76 22 23 70 56
112 77 54 26 81 46 102 76 15 23 47 59 70 81 23 22 52 60 65 85 13 25 42 63
65 85 23 22 57 69 75 105 18 36 45 81 60 100 14 19 39 79 56 132 17 53 42 114
56 135 60 87 73 146 94 412 8 110 8 184 -1 310 -18 253 -32 321 -85 426 -25
50 -52 117 -61 149 -13 47 -28 72 -75 122 -54 58 -59 67 -59 109 0 26 5 55 10
65 12 22 68 40 127 40 39 0 46 4 80 48 21 26 60 67 86 92 27 24 59 65 72 90
13 25 40 61 60 80 20 19 50 62 67 95 17 33 48 79 69 102 20 22 47 61 59 85 12
23 40 67 62 97 22 29 55 85 73 125 19 39 48 89 65 111 39 49 57 82 81 154 11
31 32 72 47 91 36 44 110 151 139 198 46 75 21 198 -45 223 -66 26 -278 30
-1614 32 l-1402 2 -106 -48z m2883 -269 c18 -37 18 -39 0 -72 -32 -60 -116
-166 -136 -172 -24 -8 -33 6 -47 69 -18 84 -13 135 15 163 33 33 83 54 120 51
24 -2 34 -10 48 -39z m-3068 -188 c12 -19 -26 -77 -80 -123 -31 -28 -56 -58
-59 -74 -10 -46 -63 -130 -97 -154 l-32 -23 6 57 c7 74 32 124 78 156 26 18
46 44 63 82 13 31 35 64 47 73 26 18 65 21 74 6z m2858 -162 c8 -25 -12 -81
-43 -119 -17 -22 -46 -72 -65 -112 -18 -40 -52 -92 -74 -117 -23 -25 -74 -88
-113 -140 -96 -127 -128 -160 -154 -160 -29 0 -37 23 -24 71 8 30 23 48 59 74
29 21 58 54 75 86 16 28 41 66 57 84 16 17 42 61 58 97 19 43 42 75 66 93 20
16 48 51 62 79 34 68 41 76 68 76 13 0 25 -6 28 -12z m-2073 -690 c44 -20 57
-21 469 -19 276 0 438 -3 464 -10 82 -22 122 -99 81 -157 -18 -26 -31 -27
-109 -6 -49 13 -135 16 -467 18 l-407 3 -42 -34 c-86 -68 -169 -25 -169 90 0
70 56 137 115 137 11 0 40 -10 65 -22z m1191 -327 c92 -69 116 -101 188 -245
85 -170 96 -268 26 -222 -17 11 -31 38 -45 87 -16 54 -32 83 -64 118 -24 25
-55 65 -69 87 -14 23 -40 52 -57 65 -77 58 -100 86 -100 123 0 33 2 36 29 36
18 0 50 -17 92 -49z m-2318 -334 c8 -13 22 -46 30 -73 28 -94 46 -123 138
-224 65 -72 98 -118 115 -158 25 -64 29 -67 189 -129 l99 -38 346 3 c341 4
346 3 373 -18 36 -28 34 -53 -5 -95 l-33 -35 -350 -1 c-302 -2 -355 0 -380 14
-63 34 -148 111 -185 169 -27 40 -60 75 -102 105 -94 65 -127 100 -154 162
-14 31 -43 84 -65 118 -65 99 -92 223 -50 223 10 0 26 -10 34 -23z m1555 -587
c44 -27 76 -98 69 -153 -7 -48 -33 -87 -72 -106 -25 -12 -35 -12 -69 0 -44 15
-74 52 -102 126 -17 44 -17 47 2 81 21 38 74 72 114 72 14 0 40 -9 58 -20z
m879 -901 c-9 -73 -36 -119 -95 -159 -28 -19 -65 -54 -81 -77 -17 -23 -39 -47
-50 -52 -21 -12 -61 -15 -61 -5 0 18 26 47 65 74 36 25 53 47 84 114 26 53 55
96 81 119 55 51 64 48 57 -14z m-3099 -246 c16 -30 24 -117 14 -144 -6 -14
-22 -34 -37 -43 -39 -26 -71 -9 -85 45 -16 60 -5 103 33 133 38 30 63 33 75 9z"/>
<path d="M10222 651 c2 -7 -5 -15 -14 -17 -10 -2 -25 -5 -34 -7 -8 -2 -19 -8
-22 -13 -4 -5 -14 -9 -22 -9 -24 1 -38 -27 -51 -101 -11 -61 -17 -73 -55 -109
-23 -22 -54 -63 -68 -92 -21 -41 -35 -56 -68 -71 -57 -25 -70 -43 -76 -104 -5
-50 -4 -51 19 -45 13 4 35 7 49 7 20 0 31 11 54 56 18 35 44 66 67 81 31 20
42 37 59 87 19 57 54 109 80 118 7 2 20 43 30 92 16 81 40 136 40 93 0 -9 7
-17 15 -17 16 0 17 41 1 57 -4 4 -6 2 -4 -6z"/>
<path d="M63 622 c-14 -9 19 -184 37 -190 26 -9 61 -61 80 -118 17 -51 28 -67
61 -88 26 -18 49 -45 66 -81 22 -45 32 -55 53 -55 14 0 35 -3 48 -6 20 -6 22
-3 22 32 0 57 -19 86 -75 114 -40 20 -54 35 -75 77 -14 28 -43 69 -66 90 -36
34 -43 46 -53 107 -13 74 -27 102 -51 101 -8 0 -19 5 -25 12 -5 7 -15 9 -22 5z"/>
<path d="M13 423 c-10 -3 -13 -44 -13 -155 0 -133 2 -149 16 -144 9 3 18 6 20
6 2 0 4 12 4 28 0 21 2 24 10 12 7 -10 10 7 10 57 0 40 5 96 11 124 10 47 9
54 -7 66 -18 13 -30 15 -51 6z"/>
<path d="M10176 417 c-16 -12 -17 -19 -7 -66 6 -28 11 -84 11 -124 0 -50 3
-67 10 -57 8 12 10 9 10 -11 0 -22 15 -39 36 -39 2 0 4 67 4 149 0 127 -2 150
-16 155 -22 9 -28 8 -48 -7z"/>
</g>
</svg>
